<svg xmlns="http://www.w3.org/2000/svg" width="90.106" height="23.894" viewBox="0 0 90.106 23.894">
  <g id="Logo" transform="translate(-14.399 -22.9)">
    <g id="Сгруппировать_19" data-name="Сгруппировать 19" transform="translate(14.399 22.9)">
      <path id="Контур_97" data-name="Контур 97" d="M19.548,46.3H32.635a5.16,5.16,0,0,0,5.148-5.148V28.065a4.745,4.745,0,0,0-.069-.867c2.5-2.011,4.819-3.137,6.483-2.739-7.454-3.1-16.693,13.3-18.461,16.519l-6.518-9.707L25.3,34.843A43.413,43.413,0,0,1,36.362,24.495,5.129,5.129,0,0,0,32.635,22.9H19.548A5.16,5.16,0,0,0,14.4,28.048V41.135A5.153,5.153,0,0,0,19.548,46.3Z" transform="translate(-14.399 -22.9)" fill="#d8d8d8" fill-rule="evenodd"/>
    </g>
    <text id="Planner" transform="translate(40.506 41.794)" fill="#d8d8d8" font-size="18" font-family="Gilroy-Bold, Gilroy" font-weight="700"><tspan x="0" y="0">Planner</tspan></text>
  </g>
</svg>
